<mxfile host="Electron" modified="2024-09-21T15:51:21.806Z" agent="Mozilla/5.0 (Macintosh; Intel Mac OS X 10_15_7) AppleWebKit/537.36 (KHTML, like Gecko) draw.io/24.6.4 Chrome/124.0.6367.207 Electron/30.0.6 Safari/537.36" etag="P9VrbDrmDqujFy_bi4PA" version="24.6.4" type="device">
  <diagram name="第 1 页" id="Po-q0ajvlCliyqI-iTAP">
    <mxGraphModel dx="1967" dy="1183" grid="0" gridSize="10" guides="1" tooltips="1" connect="1" arrows="1" fold="1" page="0" pageScale="1" pageWidth="827" pageHeight="1169" math="0" shadow="0">
      <root>
        <mxCell id="0" />
        <mxCell id="1" parent="0" />
        <mxCell id="baR1WqPlDs54tojxFu7F-3" value="" style="edgeStyle=none;curved=1;rounded=0;orthogonalLoop=1;jettySize=auto;html=1;fontSize=20;startSize=8;endSize=8;" edge="1" parent="1" source="baR1WqPlDs54tojxFu7F-1" target="baR1WqPlDs54tojxFu7F-2">
          <mxGeometry relative="1" as="geometry" />
        </mxCell>
        <mxCell id="baR1WqPlDs54tojxFu7F-1" value="打开 App" style="rounded=1;whiteSpace=wrap;html=1;fontSize=20;" vertex="1" parent="1">
          <mxGeometry x="38" y="52" width="120" height="60" as="geometry" />
        </mxCell>
        <mxCell id="baR1WqPlDs54tojxFu7F-5" value="" style="edgeStyle=none;curved=1;rounded=0;orthogonalLoop=1;jettySize=auto;html=1;fontSize=20;startSize=8;endSize=8;exitX=0.5;exitY=1;exitDx=0;exitDy=0;" edge="1" parent="1" source="baR1WqPlDs54tojxFu7F-6" target="baR1WqPlDs54tojxFu7F-4">
          <mxGeometry relative="1" as="geometry" />
        </mxCell>
        <mxCell id="baR1WqPlDs54tojxFu7F-7" value="" style="edgeStyle=none;curved=1;rounded=0;orthogonalLoop=1;jettySize=auto;html=1;fontSize=20;startSize=8;endSize=8;" edge="1" parent="1" source="baR1WqPlDs54tojxFu7F-8" target="baR1WqPlDs54tojxFu7F-6">
          <mxGeometry relative="1" as="geometry" />
        </mxCell>
        <mxCell id="baR1WqPlDs54tojxFu7F-9" value="" style="edgeStyle=none;curved=1;rounded=0;orthogonalLoop=1;jettySize=auto;html=1;fontSize=20;startSize=8;endSize=8;" edge="1" parent="1" source="baR1WqPlDs54tojxFu7F-2" target="baR1WqPlDs54tojxFu7F-8">
          <mxGeometry relative="1" as="geometry" />
        </mxCell>
        <mxCell id="baR1WqPlDs54tojxFu7F-47" value="" style="edgeStyle=none;curved=1;rounded=0;orthogonalLoop=1;jettySize=auto;html=1;fontSize=20;startSize=8;endSize=8;exitX=0.5;exitY=1;exitDx=0;exitDy=0;" edge="1" parent="1" source="baR1WqPlDs54tojxFu7F-8" target="baR1WqPlDs54tojxFu7F-46">
          <mxGeometry relative="1" as="geometry" />
        </mxCell>
        <mxCell id="baR1WqPlDs54tojxFu7F-2" value="初始化 logger" style="rounded=1;whiteSpace=wrap;html=1;fontSize=20;" vertex="1" parent="1">
          <mxGeometry x="21.5" y="145" width="153" height="60" as="geometry" />
        </mxCell>
        <mxCell id="baR1WqPlDs54tojxFu7F-27" value="" style="edgeStyle=none;curved=1;rounded=0;orthogonalLoop=1;jettySize=auto;html=1;fontSize=20;startSize=8;endSize=8;entryX=0.5;entryY=1;entryDx=0;entryDy=0;exitX=1;exitY=0.5;exitDx=0;exitDy=0;" edge="1" parent="1" source="baR1WqPlDs54tojxFu7F-4" target="baR1WqPlDs54tojxFu7F-46">
          <mxGeometry relative="1" as="geometry">
            <mxPoint x="38" y="400" as="targetPoint" />
          </mxGeometry>
        </mxCell>
        <mxCell id="baR1WqPlDs54tojxFu7F-61" value="" style="edgeStyle=none;curved=1;rounded=0;orthogonalLoop=1;jettySize=auto;html=1;fontSize=20;startSize=8;endSize=8;" edge="1" parent="1" source="baR1WqPlDs54tojxFu7F-4" target="baR1WqPlDs54tojxFu7F-60">
          <mxGeometry relative="1" as="geometry" />
        </mxCell>
        <mxCell id="baR1WqPlDs54tojxFu7F-4" value="检查日志数据库&lt;div style=&quot;font-size: 20px;&quot;&gt;log.db&lt;/div&gt;" style="rounded=1;whiteSpace=wrap;html=1;fontSize=20;" vertex="1" parent="1">
          <mxGeometry x="-149.5" y="431" width="172" height="60" as="geometry" />
        </mxCell>
        <mxCell id="baR1WqPlDs54tojxFu7F-6" value="检查db文件夹" style="rounded=1;whiteSpace=wrap;html=1;fontSize=20;" vertex="1" parent="1">
          <mxGeometry x="-134.5" y="329" width="142" height="60" as="geometry" />
        </mxCell>
        <mxCell id="baR1WqPlDs54tojxFu7F-53" value="" style="edgeStyle=none;curved=1;rounded=0;orthogonalLoop=1;jettySize=auto;html=1;fontSize=20;startSize=8;endSize=8;" edge="1" parent="1" source="baR1WqPlDs54tojxFu7F-8" target="baR1WqPlDs54tojxFu7F-52">
          <mxGeometry relative="1" as="geometry" />
        </mxCell>
        <mxCell id="baR1WqPlDs54tojxFu7F-8" value="获取应用资源路径" style="rounded=1;whiteSpace=wrap;html=1;fontSize=20;" vertex="1" parent="1">
          <mxGeometry x="7.5" y="239" width="181" height="60" as="geometry" />
        </mxCell>
        <mxCell id="baR1WqPlDs54tojxFu7F-13" value="" style="edgeStyle=none;curved=1;rounded=0;orthogonalLoop=1;jettySize=auto;html=1;fontSize=21;startSize=8;endSize=8;strokeWidth=3;fontColor=none;noLabel=1;strokeColor=#fb6800;" edge="1" parent="1" target="baR1WqPlDs54tojxFu7F-11">
          <mxGeometry relative="1" as="geometry">
            <mxPoint x="866" y="224" as="sourcePoint" />
          </mxGeometry>
        </mxCell>
        <mxCell id="baR1WqPlDs54tojxFu7F-15" value="" style="edgeStyle=none;curved=1;rounded=0;orthogonalLoop=1;jettySize=auto;html=1;fontSize=21;startSize=8;endSize=8;strokeWidth=3;fontColor=none;noLabel=1;strokeColor=#fb6800;" edge="1" parent="1" target="baR1WqPlDs54tojxFu7F-14">
          <mxGeometry relative="1" as="geometry">
            <mxPoint x="864" y="308" as="sourcePoint" />
          </mxGeometry>
        </mxCell>
        <mxCell id="baR1WqPlDs54tojxFu7F-17" value="" style="edgeStyle=none;curved=1;rounded=0;orthogonalLoop=1;jettySize=auto;html=1;fontSize=21;startSize=8;endSize=8;strokeWidth=3;fontColor=none;noLabel=1;strokeColor=#fb6800;" edge="1" parent="1" target="baR1WqPlDs54tojxFu7F-16">
          <mxGeometry relative="1" as="geometry">
            <mxPoint x="864" y="392" as="sourcePoint" />
          </mxGeometry>
        </mxCell>
        <mxCell id="baR1WqPlDs54tojxFu7F-24" value="" style="edgeStyle=none;curved=1;rounded=0;orthogonalLoop=1;jettySize=auto;html=1;fontSize=12;endArrow=circle;endFill=0;strokeWidth=3;exitX=0.008;exitY=0.496;exitDx=0;exitDy=0;strokeColor=#fb6800;exitPerimeter=0;" edge="1" parent="1" source="baR1WqPlDs54tojxFu7F-10">
          <mxGeometry relative="1" as="geometry">
            <mxPoint x="863" y="605" as="targetPoint" />
          </mxGeometry>
        </mxCell>
        <mxCell id="baR1WqPlDs54tojxFu7F-10" value="资源文件分布" style="rounded=0;whiteSpace=wrap;html=1;fontSize=21;strokeWidth=3;fillColor=#fa6800;strokeColor=none;fontColor=#ffffff;" vertex="1" parent="1">
          <mxGeometry x="865.5" y="107" width="151" height="60" as="geometry" />
        </mxCell>
        <mxCell id="baR1WqPlDs54tojxFu7F-11" value="app.conf" style="rounded=0;whiteSpace=wrap;html=1;fontSize=24;strokeWidth=3;fillColor=#76608a;fontColor=#000000;strokeColor=none;" vertex="1" parent="1">
          <mxGeometry x="977" y="194" width="120" height="60" as="geometry" />
        </mxCell>
        <mxCell id="baR1WqPlDs54tojxFu7F-14" value="backend&lt;br style=&quot;font-size: 21px;&quot;&gt;（&lt;span style=&quot;font-family: &amp;quot;JetBrains Mono&amp;quot;, monospace; font-size: 21px;&quot;&gt;subconverter&lt;/span&gt;）" style="rounded=0;whiteSpace=wrap;html=1;fontSize=21;strokeWidth=3;fillColor=#76608a;fontColor=#ffffff;strokeColor=none;" vertex="1" parent="1">
          <mxGeometry x="977" y="277" width="187" height="61" as="geometry" />
        </mxCell>
        <mxCell id="baR1WqPlDs54tojxFu7F-19" value="" style="edgeStyle=none;curved=1;rounded=0;orthogonalLoop=1;jettySize=auto;html=1;fontSize=21;startSize=8;endSize=8;strokeWidth=3;strokeColor=#75608a;" edge="1" parent="1" target="baR1WqPlDs54tojxFu7F-18">
          <mxGeometry relative="1" as="geometry">
            <mxPoint x="978" y="480" as="sourcePoint" />
          </mxGeometry>
        </mxCell>
        <mxCell id="baR1WqPlDs54tojxFu7F-22" value="" style="edgeStyle=none;curved=1;rounded=0;orthogonalLoop=1;jettySize=auto;html=1;fontSize=21;startSize=8;endSize=8;strokeWidth=3;strokeColor=#75608a;" edge="1" parent="1" target="baR1WqPlDs54tojxFu7F-21">
          <mxGeometry relative="1" as="geometry">
            <mxPoint x="978" y="568" as="sourcePoint" />
          </mxGeometry>
        </mxCell>
        <mxCell id="baR1WqPlDs54tojxFu7F-16" value="db" style="rounded=0;whiteSpace=wrap;html=1;fontSize=21;strokeWidth=3;fillColor=#76608a;fontColor=#ffffff;strokeColor=none;" vertex="1" parent="1">
          <mxGeometry x="977" y="363" width="120" height="60" as="geometry" />
        </mxCell>
        <mxCell id="baR1WqPlDs54tojxFu7F-18" value="log.db" style="rounded=0;whiteSpace=wrap;html=1;fontSize=24;strokeWidth=3;fillColor=#cdeb8b;strokeColor=none;" vertex="1" parent="1">
          <mxGeometry x="1072" y="450" width="120" height="60" as="geometry" />
        </mxCell>
        <mxCell id="baR1WqPlDs54tojxFu7F-21" value="history.db" style="rounded=0;whiteSpace=wrap;html=1;fontSize=24;strokeWidth=3;fillColor=#cdeb8b;strokeColor=none;" vertex="1" parent="1">
          <mxGeometry x="1072" y="537" width="120" height="60" as="geometry" />
        </mxCell>
        <mxCell id="baR1WqPlDs54tojxFu7F-25" value="" style="edgeStyle=none;curved=1;rounded=0;orthogonalLoop=1;jettySize=auto;html=1;fontSize=12;endArrow=circle;endFill=0;strokeWidth=3;exitX=0.014;exitY=0.457;exitDx=0;exitDy=0;exitPerimeter=0;strokeColor=#75608a;" edge="1" parent="1" source="baR1WqPlDs54tojxFu7F-16">
          <mxGeometry relative="1" as="geometry">
            <mxPoint x="977" y="391" as="sourcePoint" />
            <mxPoint x="977" y="629" as="targetPoint" />
          </mxGeometry>
        </mxCell>
        <mxCell id="baR1WqPlDs54tojxFu7F-41" value="app.conf" style="swimlane;fontStyle=0;childLayout=stackLayout;horizontal=1;startSize=26;fillColor=#cdeb8b;horizontalStack=0;resizeParent=1;resizeParentMax=0;resizeLast=0;collapsible=1;marginBottom=0;html=1;strokeColor=#36393d;fontSize=20;" vertex="1" parent="1">
          <mxGeometry x="239" y="74" width="162" height="106" as="geometry" />
        </mxCell>
        <mxCell id="baR1WqPlDs54tojxFu7F-42" value="log" style="text;strokeColor=#36393d;fillColor=#ffcc99;align=left;verticalAlign=top;spacingLeft=4;spacingRight=4;overflow=hidden;rotatable=0;points=[[0,0.5],[1,0.5]];portConstraint=eastwest;whiteSpace=wrap;html=1;fontSize=20;" vertex="1" parent="baR1WqPlDs54tojxFu7F-41">
          <mxGeometry y="26" width="162" height="40" as="geometry" />
        </mxCell>
        <mxCell id="baR1WqPlDs54tojxFu7F-43" value="history" style="text;strokeColor=#36393d;fillColor=#ffcc99;align=left;verticalAlign=top;spacingLeft=4;spacingRight=4;overflow=hidden;rotatable=0;points=[[0,0.5],[1,0.5]];portConstraint=eastwest;whiteSpace=wrap;html=1;fontSize=20;" vertex="1" parent="baR1WqPlDs54tojxFu7F-41">
          <mxGeometry y="66" width="162" height="40" as="geometry" />
        </mxCell>
        <mxCell id="baR1WqPlDs54tojxFu7F-46" value="检查 app.conf" style="rounded=1;whiteSpace=wrap;html=1;fontSize=20;" vertex="1" parent="1">
          <mxGeometry x="25" y="329" width="146" height="60" as="geometry" />
        </mxCell>
        <mxCell id="baR1WqPlDs54tojxFu7F-48" value="写入" style="text;html=1;align=center;verticalAlign=middle;whiteSpace=wrap;rounded=0;fontSize=20;" vertex="1" parent="1">
          <mxGeometry x="38" y="426" width="60" height="30" as="geometry" />
        </mxCell>
        <mxCell id="baR1WqPlDs54tojxFu7F-55" value="" style="edgeStyle=none;curved=1;rounded=0;orthogonalLoop=1;jettySize=auto;html=1;fontSize=20;startSize=8;endSize=8;" edge="1" parent="1" source="baR1WqPlDs54tojxFu7F-52" target="baR1WqPlDs54tojxFu7F-54">
          <mxGeometry relative="1" as="geometry" />
        </mxCell>
        <mxCell id="baR1WqPlDs54tojxFu7F-59" value="" style="edgeStyle=none;curved=1;rounded=0;orthogonalLoop=1;jettySize=auto;html=1;fontSize=20;startSize=8;endSize=8;" edge="1" parent="1" source="baR1WqPlDs54tojxFu7F-52" target="baR1WqPlDs54tojxFu7F-58">
          <mxGeometry relative="1" as="geometry" />
        </mxCell>
        <mxCell id="baR1WqPlDs54tojxFu7F-52" value="检查 backend" style="rounded=1;whiteSpace=wrap;html=1;fontSize=20;" vertex="1" parent="1">
          <mxGeometry x="188.5" y="329" width="145" height="60" as="geometry" />
        </mxCell>
        <mxCell id="baR1WqPlDs54tojxFu7F-56" value="" style="edgeStyle=none;curved=1;rounded=0;orthogonalLoop=1;jettySize=auto;html=1;fontSize=20;startSize=8;endSize=8;entryX=0.5;entryY=1;entryDx=0;entryDy=0;" edge="1" parent="1" source="baR1WqPlDs54tojxFu7F-54" target="baR1WqPlDs54tojxFu7F-46">
          <mxGeometry relative="1" as="geometry" />
        </mxCell>
        <mxCell id="baR1WqPlDs54tojxFu7F-54" value="启动" style="rounded=1;whiteSpace=wrap;html=1;fontSize=20;" vertex="1" parent="1">
          <mxGeometry x="181" y="433" width="120" height="60" as="geometry" />
        </mxCell>
        <mxCell id="baR1WqPlDs54tojxFu7F-57" value="写入" style="text;html=1;align=center;verticalAlign=middle;whiteSpace=wrap;rounded=0;fontSize=20;" vertex="1" parent="1">
          <mxGeometry x="113" y="426" width="60" height="30" as="geometry" />
        </mxCell>
        <mxCell id="baR1WqPlDs54tojxFu7F-58" value="退出" style="rounded=1;whiteSpace=wrap;html=1;fontSize=20;" vertex="1" parent="1">
          <mxGeometry x="318" y="431" width="120" height="60" as="geometry" />
        </mxCell>
        <mxCell id="baR1WqPlDs54tojxFu7F-60" value="检查历史记录数据库&lt;div style=&quot;font-size: 20px;&quot;&gt;history.db&lt;/div&gt;" style="rounded=1;whiteSpace=wrap;html=1;fontSize=20;" vertex="1" parent="1">
          <mxGeometry x="-160" y="525" width="193" height="60" as="geometry" />
        </mxCell>
        <mxCell id="baR1WqPlDs54tojxFu7F-64" value="" style="endArrow=none;html=1;rounded=0;fontSize=12;startSize=8;endSize=8;curved=1;spacing=0;strokeWidth=3;fillColor=#6d8764;strokeColor=#009900;" edge="1" parent="1">
          <mxGeometry width="50" height="50" relative="1" as="geometry">
            <mxPoint x="-171" y="310" as="sourcePoint" />
            <mxPoint x="519" y="314" as="targetPoint" />
          </mxGeometry>
        </mxCell>
        <mxCell id="baR1WqPlDs54tojxFu7F-65" value="" style="endArrow=none;html=1;rounded=0;fontSize=12;startSize=8;endSize=8;curved=1;spacing=0;strokeWidth=3;fillColor=#6d8764;strokeColor=#009900;" edge="1" parent="1">
          <mxGeometry width="50" height="50" relative="1" as="geometry">
            <mxPoint x="-172" y="409" as="sourcePoint" />
            <mxPoint x="519" y="413" as="targetPoint" />
          </mxGeometry>
        </mxCell>
        <mxCell id="baR1WqPlDs54tojxFu7F-66" value="" style="endArrow=none;html=1;rounded=0;fontSize=12;startSize=8;endSize=8;curved=1;strokeWidth=3;fillColor=#6d8764;strokeColor=#009900;" edge="1" parent="1">
          <mxGeometry width="50" height="50" relative="1" as="geometry">
            <mxPoint x="-172" y="409" as="sourcePoint" />
            <mxPoint x="-171" y="310" as="targetPoint" />
          </mxGeometry>
        </mxCell>
        <mxCell id="baR1WqPlDs54tojxFu7F-67" value="" style="endArrow=none;html=1;rounded=0;fontSize=12;startSize=8;endSize=8;curved=1;strokeWidth=3;fillColor=#6d8764;strokeColor=#009900;" edge="1" parent="1">
          <mxGeometry width="50" height="50" relative="1" as="geometry">
            <mxPoint x="519" y="412" as="sourcePoint" />
            <mxPoint x="520" y="314" as="targetPoint" />
          </mxGeometry>
        </mxCell>
        <mxCell id="baR1WqPlDs54tojxFu7F-68" value="&lt;p class=&quot;p1&quot; style=&quot;margin: 0px; font-variant-numeric: normal; font-variant-east-asian: normal; font-variant-alternates: normal; font-kerning: auto; font-optical-sizing: auto; font-feature-settings: normal; font-variation-settings: normal; font-variant-position: normal; font-stretch: normal; line-height: normal; font-family: &amp;quot;Helvetica Neue&amp;quot;; text-align: start;&quot;&gt;&lt;span class=&quot;s1&quot; style=&quot;letter-spacing: 0.2px;&quot;&gt;&lt;font style=&quot;font-size: 20px;&quot;&gt;Thread pool&lt;/font&gt;&lt;/span&gt;&lt;/p&gt;" style="text;html=1;align=center;verticalAlign=middle;whiteSpace=wrap;rounded=0;fontSize=20;fillColor=#00CC00;strokeColor=#36393d;fontColor=#FFFFFF;" vertex="1" parent="1">
          <mxGeometry x="357" y="344" width="139" height="30" as="geometry" />
        </mxCell>
      </root>
    </mxGraphModel>
  </diagram>
</mxfile>
